<svg xmlns="http://www.w3.org/2000/svg" viewBox="0 0 800 600" width="800" height="600" style="background-color: #ffffff; font-family: -apple-system, BlinkMacSystemFont, 'Segoe UI', Roboto, Helvetica, Arial, sans-serif;">
  <title>Figure 3: Reliability Calibration Diagram (ECE 10-bin)</title>
  <defs>
    <filter id="shadow" x="-5%" y="-5%" width="110%" height="110%">
      <feDropShadow dx="2" dy="2" stdDeviation="3" flood-opacity="0.15" />
    </filter>
  </defs>
  <text x="90" y="34" font-size="20" font-weight="700" fill="#1e293b">Probability Calibration &amp; Reliability Diagram</text>  <text x="90" y="54" font-size="13" fill="#64748b">Platt Temperature Scaling Effect on Expected Calibration Error (ECE)</text>  <line x1="90.0" y1="70" x2="90.0" y2="520" stroke="#e2e8f0" stroke-width="1" />  <text x="90.0" y="542" font-size="12" fill="#475569" text-anchor="middle">0.0</text>  <line x1="90" y1="520.0" x2="740" y2="520.0" stroke="#e2e8f0" stroke-width="1" />  <text x="78" y="524.0" font-size="12" fill="#475569" text-anchor="end">0.0</text>  <line x1="155.0" y1="70" x2="155.0" y2="520" stroke="#e2e8f0" stroke-width="1" />  <text x="155.0" y="542" font-size="12" fill="#475569" text-anchor="middle">0.1</text>  <line x1="90" y1="475.0" x2="740" y2="475.0" stroke="#e2e8f0" stroke-width="1" />  <text x="78" y="479.0" font-size="12" fill="#475569" text-anchor="end">0.1</text>  <line x1="220.0" y1="70" x2="220.0" y2="520" stroke="#e2e8f0" stroke-width="1" />  <text x="220.0" y="542" font-size="12" fill="#475569" text-anchor="middle">0.2</text>  <line x1="90" y1="430.0" x2="740" y2="430.0" stroke="#e2e8f0" stroke-width="1" />  <text x="78" y="434.0" font-size="12" fill="#475569" text-anchor="end">0.2</text>  <line x1="285.0" y1="70" x2="285.0" y2="520" stroke="#e2e8f0" stroke-width="1" />  <text x="285.0" y="542" font-size="12" fill="#475569" text-anchor="middle">0.3</text>  <line x1="90" y1="385.0" x2="740" y2="385.0" stroke="#e2e8f0" stroke-width="1" />  <text x="78" y="389.0" font-size="12" fill="#475569" text-anchor="end">0.3</text>  <line x1="350.0" y1="70" x2="350.0" y2="520" stroke="#e2e8f0" stroke-width="1" />  <text x="350.0" y="542" font-size="12" fill="#475569" text-anchor="middle">0.4</text>  <line x1="90" y1="340.0" x2="740" y2="340.0" stroke="#e2e8f0" stroke-width="1" />  <text x="78" y="344.0" font-size="12" fill="#475569" text-anchor="end">0.4</text>  <line x1="415.0" y1="70" x2="415.0" y2="520" stroke="#e2e8f0" stroke-width="1" />  <text x="415.0" y="542" font-size="12" fill="#475569" text-anchor="middle">0.5</text>  <line x1="90" y1="295.0" x2="740" y2="295.0" stroke="#e2e8f0" stroke-width="1" />  <text x="78" y="299.0" font-size="12" fill="#475569" text-anchor="end">0.5</text>  <line x1="480.0" y1="70" x2="480.0" y2="520" stroke="#e2e8f0" stroke-width="1" />  <text x="480.0" y="542" font-size="12" fill="#475569" text-anchor="middle">0.6</text>  <line x1="90" y1="250.0" x2="740" y2="250.0" stroke="#e2e8f0" stroke-width="1" />  <text x="78" y="254.0" font-size="12" fill="#475569" text-anchor="end">0.6</text>  <line x1="545.0" y1="70" x2="545.0" y2="520" stroke="#e2e8f0" stroke-width="1" />  <text x="545.0" y="542" font-size="12" fill="#475569" text-anchor="middle">0.7</text>  <line x1="90" y1="205.00000000000003" x2="740" y2="205.00000000000003" stroke="#e2e8f0" stroke-width="1" />  <text x="78" y="209.00000000000003" font-size="12" fill="#475569" text-anchor="end">0.7</text>  <line x1="610.0" y1="70" x2="610.0" y2="520" stroke="#e2e8f0" stroke-width="1" />  <text x="610.0" y="542" font-size="12" fill="#475569" text-anchor="middle">0.8</text>  <line x1="90" y1="160.0" x2="740" y2="160.0" stroke="#e2e8f0" stroke-width="1" />  <text x="78" y="164.0" font-size="12" fill="#475569" text-anchor="end">0.8</text>  <line x1="675.0" y1="70" x2="675.0" y2="520" stroke="#e2e8f0" stroke-width="1" />  <text x="675.0" y="542" font-size="12" fill="#475569" text-anchor="middle">0.9</text>  <line x1="90" y1="115.0" x2="740" y2="115.0" stroke="#e2e8f0" stroke-width="1" />  <text x="78" y="119.0" font-size="12" fill="#475569" text-anchor="end">0.9</text>  <line x1="740.0" y1="70" x2="740.0" y2="520" stroke="#e2e8f0" stroke-width="1" />  <text x="740.0" y="542" font-size="12" fill="#475569" text-anchor="middle">1.0</text>  <line x1="90" y1="70.0" x2="740" y2="70.0" stroke="#e2e8f0" stroke-width="1" />  <text x="78" y="74.0" font-size="12" fill="#475569" text-anchor="end">1.0</text>  <line x1="90" y1="520" x2="740" y2="520" stroke="#334155" stroke-width="2" />  <line x1="90" y1="70" x2="90" y2="520" stroke="#334155" stroke-width="2" />  <text x="415.0" y="574" font-size="14" font-weight="600" fill="#1e293b" text-anchor="middle">Mean Predicted Probability (Confidence)</text>  <text transform="rotate(-90 35 295.0)" x="35" y="295.0" font-size="14" font-weight="600" fill="#1e293b" text-anchor="middle">Empirical Accuracy (Fraction of Positives)</text>  <line x1="90.0" y1="520.0" x2="740.0" y2="70.0" stroke="#94a3b8" stroke-width="2" stroke-dasharray="5,4" />  <path d="M 122.5,511.0 L 187.5,484.0 L 252.5,448.0 L 317.5,412.0 L 382.5,349.0 L 447.50000000000006,299.5 L 512.5,259.0 L 577.5,205.00000000000003 L 642.5,164.5 L 707.5,110.49999999999999" fill="none" stroke="#f59e0b" stroke-width="2.5" stroke-dasharray="4,3" />  <circle cx="122.5" cy="511.0" r="5" fill="#f59e0b" stroke="#ffffff" stroke-width="1.5" />  <circle cx="187.5" cy="484.0" r="5" fill="#f59e0b" stroke="#ffffff" stroke-width="1.5" />  <circle cx="252.5" cy="448.0" r="5" fill="#f59e0b" stroke="#ffffff" stroke-width="1.5" />  <circle cx="317.5" cy="412.0" r="5" fill="#f59e0b" stroke="#ffffff" stroke-width="1.5" />  <circle cx="382.5" cy="349.0" r="5" fill="#f59e0b" stroke="#ffffff" stroke-width="1.5" />  <circle cx="447.50000000000006" cy="299.5" r="5" fill="#f59e0b" stroke="#ffffff" stroke-width="1.5" />  <circle cx="512.5" cy="259.0" r="5" fill="#f59e0b" stroke="#ffffff" stroke-width="1.5" />  <circle cx="577.5" cy="205.00000000000003" r="5" fill="#f59e0b" stroke="#ffffff" stroke-width="1.5" />  <circle cx="642.5" cy="164.5" r="5" fill="#f59e0b" stroke="#ffffff" stroke-width="1.5" />  <circle cx="707.5" cy="110.49999999999999" r="5" fill="#f59e0b" stroke="#ffffff" stroke-width="1.5" />  <path d="M 122.5,498.4 L 187.5,453.84999999999997 L 252.5,406.6 L 317.5,363.40000000000003 L 382.5,316.15 L 447.50000000000006,272.95 L 512.5,226.6 L 577.5,183.4 L 642.5,137.05 L 707.5,92.95000000000002" fill="none" stroke="#059669" stroke-width="3.5" />  <circle cx="122.5" cy="498.4" r="6" fill="#059669" stroke="#ffffff" stroke-width="2" filter="url(#shadow)" />  <circle cx="187.5" cy="453.84999999999997" r="6" fill="#059669" stroke="#ffffff" stroke-width="2" filter="url(#shadow)" />  <circle cx="252.5" cy="406.6" r="6" fill="#059669" stroke="#ffffff" stroke-width="2" filter="url(#shadow)" />  <circle cx="317.5" cy="363.40000000000003" r="6" fill="#059669" stroke="#ffffff" stroke-width="2" filter="url(#shadow)" />  <circle cx="382.5" cy="316.15" r="6" fill="#059669" stroke="#ffffff" stroke-width="2" filter="url(#shadow)" />  <circle cx="447.50000000000006" cy="272.95" r="6" fill="#059669" stroke="#ffffff" stroke-width="2" filter="url(#shadow)" />  <circle cx="512.5" cy="226.6" r="6" fill="#059669" stroke="#ffffff" stroke-width="2" filter="url(#shadow)" />  <circle cx="577.5" cy="183.4" r="6" fill="#059669" stroke="#ffffff" stroke-width="2" filter="url(#shadow)" />  <circle cx="642.5" cy="137.05" r="6" fill="#059669" stroke="#ffffff" stroke-width="2" filter="url(#shadow)" />  <circle cx="707.5" cy="92.95000000000002" r="6" fill="#059669" stroke="#ffffff" stroke-width="2" filter="url(#shadow)" />  <rect x="115" y="95" width="280" height="95" rx="8" fill="#ffffff" stroke="#cbd5e1" stroke-width="1" filter="url(#shadow)" />  <line x1="130" y1="120" x2="160" y2="120" stroke="#94a3b8" stroke-width="2" stroke-dasharray="5,4" />  <text x="170" y="124" font-size="12" fill="#64748b">Perfect Calibration (y = x)</text>  <line x1="130" y1="145" x2="160" y2="145" stroke="#f59e0b" stroke-width="2.5" stroke-dasharray="4,3" />  <text x="170" y="149" font-size="12" fill="#b45309" font-weight="600">Uncalibrated (ECE = 0.0521)</text>  <line x1="130" y1="170" x2="160" y2="170" stroke="#059669" stroke-width="3" />  <text x="170" y="174" font-size="12" fill="#047857" font-weight="700">Platt Scaled (ECE = 0.0133, -74.5%)</text></svg>
